<svg id="Grupo_32" data-name="Grupo 32" xmlns="http://www.w3.org/2000/svg" xmlns:xlink="http://www.w3.org/1999/xlink" width="1191.026" height="295.108" viewBox="0 0 1191.026 295.108">
  <defs>
    <clipPath id="clip-path">
      <rect id="Rectángulo_41" data-name="Rectángulo 41" width="1191.026" height="295.108" fill="none"/>
    </clipPath>
  </defs>
  <g id="Grupo_31" data-name="Grupo 31" clip-path="url(#clip-path)">
    <path id="Trazado_126" data-name="Trazado 126" d="M1186.182,293.005c-9.223,2.2-10.4-7.843-19.882-7.843s-9.481,7.951-18.963,7.951-9.481-7.951-18.963-7.951-9.481,7.951-18.962,7.951-9.481-7.951-18.963-7.951-9.481,7.951-18.963,7.951-9.481-7.951-18.962-7.951-9.482,7.951-18.964,7.951-9.481-7.951-18.963-7.951-9.481,7.951-18.963,7.951-9.482-7.951-18.964-7.951-9.481,7.951-18.962,7.951-9.483-7.951-18.965-7.951-9.481,7.951-18.963,7.951-9.482-7.951-18.965-7.951-9.481,7.951-18.963,7.951-9.482-7.951-18.964-7.951-9.482,7.951-18.963,7.951-9.482-7.951-18.964-7.951-9.481,7.951-18.963,7.951-9.483-7.951-18.964-7.951-9.482,7.951-18.963,7.951-9.482-7.951-18.964-7.951-9.482,7.951-18.964,7.951-9.481-7.951-18.963-7.951-9.482,7.951-18.964,7.951-9.483-7.951-18.965-7.951-9.482,7.951-18.964,7.951-9.481-7.951-18.963-7.951-9.482,7.951-18.964,7.951-9.483-7.951-18.965-7.951-9.483,7.951-18.964,7.951-9.483-7.951-18.965-7.951-9.48,7.951-18.961,7.951-9.482-7.951-18.965-7.951-9.481,7.951-18.961,7.951-9.481-7.951-18.963-7.951-9.482,7.951-18.963,7.951-9.481-7.951-18.962-7.951-9.482,7.951-18.964,7.951-9.483-7.951-18.966-7.951-9.481,7.951-18.963,7.951-9.482-7.951-18.964-7.951-9.481,7.951-18.963,7.951-9.482-7.951-18.964-7.951-9.483,7.951-18.965,7.951-9.483-7.951-18.967-7.951-9.483,7.951-18.965,7.951-9.483-7.951-18.966-7.951-9.483,7.951-18.966,7.951-9.483-7.951-18.965-7.951-9.483,7.951-18.966,7.951-9.484-7.951-18.967-7.951-9.481,7.951-18.963,7.951-9.483-7.951-18.965-7.951-9.483,7.951-18.966,7.951-9.484-7.951-18.968-7.951-9.484,7.951-18.968,7.951-9.485-7.951-18.969-7.951-9.484,7.951-18.968,7.951-9.486-7.951-18.971-7.951S17.786,295.2,8.557,293.006c-2.192-.521,4.894-6.121,4.894-8.373S5.5,282.38,5.5,280.128s7.951-2.252,7.951-4.5S5.5,273.37,5.5,271.117s7.951-2.254,7.951-4.507S5.5,264.358,5.5,262.1s7.951-2.253,7.951-4.506S5.5,255.346,5.5,253.093s7.951-2.253,7.951-4.506S5.5,246.335,5.5,244.081s7.951-2.254,7.951-4.507S5.5,237.321,5.5,235.068s7.951-2.253,7.951-4.506S5.5,228.31,5.5,226.056s7.951-2.254,7.951-4.507S5.5,219.3,5.5,217.043s7.951-2.254,7.951-4.506S5.5,210.283,5.5,208.03s7.951-2.254,7.951-4.508S5.5,201.269,5.5,199.016s7.951-2.253,7.951-4.506S5.5,192.256,5.5,190s7.951-2.254,7.951-4.508S5.5,183.242,5.5,180.989s7.951-2.254,7.951-4.507S5.5,174.228,5.5,171.975s7.951-2.254,7.951-4.506S5.5,165.214,5.5,162.96s7.951-2.254,7.951-4.507S5.5,156.2,5.5,153.946s7.951-2.254,7.951-4.508S5.5,147.185,5.5,144.932s7.951-2.254,7.951-4.508-7.951-2.252-7.951-4.5,7.951-2.252,7.951-4.5S5.5,129.161,5.5,126.909s7.951-2.254,7.951-4.507S5.5,120.149,5.5,117.9s7.951-2.253,7.951-4.506S5.5,111.136,5.5,108.882s7.951-2.253,7.951-4.506S5.5,102.123,5.5,99.869s7.951-2.254,7.951-4.507S5.5,93.108,5.5,90.855s7.951-2.254,7.951-4.508S5.5,84.093,5.5,81.839s7.951-2.254,7.951-4.508S5.5,75.077,5.5,72.822s7.951-2.255,7.951-4.51S5.5,66.059,5.5,63.8s7.951-2.254,7.951-4.508S5.5,57.04,5.5,54.786s7.951-2.255,7.951-4.51S5.5,48.022,5.5,45.769s7.951-2.255,7.951-4.509S5.5,39,5.5,36.751s7.951-2.255,7.951-4.509S5.5,29.986,5.5,27.731s7.951-2.254,7.951-4.508S5.5,20.967,5.5,18.711s7.951-2.257,7.951-4.514-7.093-7.86-4.9-8.383c9.223-2.2,10.4,7.843,19.882,7.843S37.919,5.706,47.4,5.706s9.481,7.951,18.963,7.951,9.481-7.951,18.962-7.951,9.482,7.951,18.963,7.951,9.481-7.951,18.963-7.951,9.481,7.951,18.962,7.951,9.483-7.951,18.965-7.951,9.481,7.951,18.963,7.951S189.62,5.706,199.1,5.706s9.482,7.951,18.963,7.951,9.481-7.951,18.963-7.951,9.482,7.951,18.965,7.951,9.481-7.951,18.963-7.951,9.482,7.951,18.964,7.951,9.481-7.951,18.963-7.951,9.483,7.951,18.964,7.951,9.481-7.951,18.963-7.951,9.483,7.951,18.965,7.951,9.482-7.951,18.963-7.951,9.482,7.951,18.965,7.951,9.481-7.951,18.963-7.951,9.482,7.951,18.963,7.951,9.483-7.951,18.965-7.951,9.482,7.951,18.963,7.951,9.483-7.951,18.964-7.951,9.483,7.951,18.965,7.951,9.482-7.951,18.964-7.951,9.482,7.951,18.964,7.951,9.482-7.951,18.964-7.951,9.482,7.951,18.964,7.951,9.482-7.951,18.965-7.951,9.483,7.951,18.965,7.951,9.48-7.951,18.96-7.951,9.483,7.951,18.965,7.951,9.481-7.951,18.961-7.951,9.481,7.951,18.963,7.951,9.481-7.951,18.963-7.951,9.481,7.951,18.962,7.951,9.482-7.951,18.964-7.951,9.483,7.951,18.965,7.951,9.482-7.951,18.964-7.951,9.482,7.951,18.963,7.951,9.482-7.951,18.964-7.951,9.482,7.951,18.964,7.951,9.482-7.951,18.965-7.951,9.483,7.951,18.966,7.951,9.483-7.951,18.965-7.951,9.483,7.951,18.966,7.951,9.483-7.951,18.965-7.951,9.483,7.951,18.966,7.951,9.483-7.951,18.966-7.951,9.483,7.951,18.967,7.951,9.481-7.951,18.963-7.951,9.483,7.951,18.965,7.951,9.483-7.951,18.965-7.951,9.484,7.951,18.968,7.951,9.484-7.951,18.968-7.951,9.484,7.951,18.969,7.951,9.485-7.951,18.969-7.951,9.485,7.951,18.971,7.951,10.661-10.035,19.89-7.844c2.191.521-4.895,6.121-4.895,8.373s7.951,2.253,7.951,4.505-7.951,2.252-7.951,4.505,7.951,2.252,7.951,4.505-7.951,2.254-7.951,4.507,7.951,2.254,7.951,4.506-7.951,2.253-7.951,4.506,7.951,2.253,7.951,4.505-7.951,2.253-7.951,4.506,7.951,2.254,7.951,4.506-7.951,2.254-7.951,4.507,7.951,2.253,7.951,4.506-7.951,2.253-7.951,4.506,7.951,2.253,7.951,4.506-7.951,2.254-7.951,4.508,7.951,2.253,7.951,4.506-7.951,2.253-7.951,4.506,7.951,2.253,7.951,4.506-7.951,2.254-7.951,4.508,7.951,2.253,7.951,4.506-7.951,2.253-7.951,4.506,7.951,2.254,7.951,4.507-7.951,2.254-7.951,4.507,7.951,2.253,7.951,4.506-7.951,2.254-7.951,4.507,7.951,2.254,7.951,4.507-7.951,2.254-7.951,4.507,7.951,2.254,7.951,4.507-7.951,2.254-7.951,4.507,7.951,2.254,7.951,4.507-7.951,2.254-7.951,4.508,7.951,2.253,7.951,4.506-7.951,2.254-7.951,4.508,7.951,2.252,7.951,4.505-7.951,2.252-7.951,4.5,7.951,2.253,7.951,4.506-7.951,2.254-7.951,4.507,7.951,2.253,7.951,4.505-7.951,2.254-7.951,4.506,7.951,2.254,7.951,4.508-7.951,2.253-7.951,4.506,7.951,2.254,7.951,4.508-7.951,2.254-7.951,4.507,7.951,2.254,7.951,4.508-7.951,2.254-7.951,4.507,7.951,2.254,7.951,4.508-7.951,2.254-7.951,4.508,7.951,2.254,7.951,4.509-7.951,2.254-7.951,4.509,7.951,2.255,7.951,4.509-7.951,2.254-7.951,4.509,7.951,2.254,7.951,4.509-7.951,2.255-7.951,4.51,7.951,2.254,7.951,4.507-7.951,2.254-7.951,4.509,7.951,2.254,7.951,4.509-7.951,2.254-7.951,4.509,7.951,2.255,7.951,4.51-7.951,2.254-7.951,4.508,7.951,2.256,7.951,4.512-8.382,3.3-7.831,5.486c1.093,4.341,6.972,6.888,4.776,7.411" transform="translate(-1.856 -1.856)" fill="#f84b4b"/>
    <path id="Trazado_127" data-name="Trazado 127" d="M1186.182,293.005c-9.223,2.2-10.4-7.843-19.882-7.843s-9.481,7.951-18.963,7.951-9.481-7.951-18.963-7.951-9.481,7.951-18.962,7.951-9.481-7.951-18.963-7.951-9.481,7.951-18.963,7.951-9.481-7.951-18.962-7.951-9.482,7.951-18.964,7.951-9.481-7.951-18.963-7.951-9.481,7.951-18.963,7.951-9.482-7.951-18.964-7.951-9.481,7.951-18.962,7.951-9.483-7.951-18.965-7.951-9.481,7.951-18.963,7.951-9.482-7.951-18.965-7.951-9.481,7.951-18.963,7.951-9.482-7.951-18.964-7.951-9.482,7.951-18.963,7.951-9.482-7.951-18.964-7.951-9.481,7.951-18.963,7.951-9.483-7.951-18.964-7.951-9.482,7.951-18.963,7.951-9.482-7.951-18.964-7.951-9.482,7.951-18.964,7.951-9.481-7.951-18.963-7.951-9.482,7.951-18.964,7.951-9.483-7.951-18.965-7.951-9.482,7.951-18.964,7.951-9.481-7.951-18.963-7.951-9.482,7.951-18.964,7.951-9.483-7.951-18.965-7.951-9.483,7.951-18.964,7.951-9.483-7.951-18.965-7.951-9.48,7.951-18.961,7.951-9.482-7.951-18.965-7.951-9.481,7.951-18.961,7.951-9.481-7.951-18.963-7.951-9.482,7.951-18.963,7.951-9.481-7.951-18.962-7.951-9.482,7.951-18.964,7.951-9.483-7.951-18.966-7.951-9.481,7.951-18.963,7.951-9.482-7.951-18.964-7.951-9.481,7.951-18.963,7.951-9.482-7.951-18.964-7.951-9.483,7.951-18.965,7.951-9.483-7.951-18.967-7.951-9.483,7.951-18.965,7.951-9.483-7.951-18.966-7.951-9.483,7.951-18.966,7.951-9.483-7.951-18.965-7.951-9.483,7.951-18.966,7.951-9.484-7.951-18.967-7.951-9.481,7.951-18.963,7.951-9.483-7.951-18.965-7.951-9.483,7.951-18.966,7.951-9.484-7.951-18.968-7.951-9.484,7.951-18.968,7.951-9.485-7.951-18.969-7.951-9.484,7.951-18.968,7.951-9.486-7.951-18.971-7.951S17.786,295.2,8.557,293.006c-2.192-.521,4.894-6.121,4.894-8.373S5.5,282.38,5.5,280.128s7.951-2.252,7.951-4.5S5.5,273.37,5.5,271.117s7.951-2.254,7.951-4.507S5.5,264.358,5.5,262.1s7.951-2.253,7.951-4.506S5.5,255.346,5.5,253.093s7.951-2.253,7.951-4.506S5.5,246.335,5.5,244.081s7.951-2.254,7.951-4.507S5.5,237.321,5.5,235.068s7.951-2.253,7.951-4.506S5.5,228.31,5.5,226.056s7.951-2.254,7.951-4.507S5.5,219.3,5.5,217.043s7.951-2.254,7.951-4.506S5.5,210.283,5.5,208.03s7.951-2.254,7.951-4.508S5.5,201.269,5.5,199.016s7.951-2.253,7.951-4.506S5.5,192.256,5.5,190s7.951-2.254,7.951-4.508S5.5,183.242,5.5,180.989s7.951-2.254,7.951-4.507S5.5,174.228,5.5,171.975s7.951-2.254,7.951-4.506S5.5,165.214,5.5,162.96s7.951-2.254,7.951-4.507S5.5,156.2,5.5,153.946s7.951-2.254,7.951-4.508S5.5,147.185,5.5,144.932s7.951-2.254,7.951-4.508-7.951-2.252-7.951-4.5,7.951-2.252,7.951-4.5S5.5,129.161,5.5,126.909s7.951-2.254,7.951-4.507S5.5,120.149,5.5,117.9s7.951-2.253,7.951-4.506S5.5,111.136,5.5,108.882s7.951-2.253,7.951-4.506S5.5,102.123,5.5,99.869s7.951-2.254,7.951-4.507S5.5,93.108,5.5,90.855s7.951-2.254,7.951-4.508S5.5,84.093,5.5,81.839s7.951-2.254,7.951-4.508S5.5,75.077,5.5,72.822s7.951-2.255,7.951-4.51S5.5,66.059,5.5,63.8s7.951-2.254,7.951-4.508S5.5,57.04,5.5,54.786s7.951-2.255,7.951-4.51S5.5,48.022,5.5,45.769s7.951-2.255,7.951-4.509S5.5,39,5.5,36.751s7.951-2.255,7.951-4.509S5.5,29.986,5.5,27.731s7.951-2.254,7.951-4.508S5.5,20.967,5.5,18.711s7.951-2.257,7.951-4.514-7.093-7.86-4.9-8.383c9.223-2.2,10.4,7.843,19.882,7.843S37.919,5.706,47.4,5.706s9.481,7.951,18.963,7.951,9.481-7.951,18.962-7.951,9.482,7.951,18.963,7.951,9.481-7.951,18.963-7.951,9.481,7.951,18.962,7.951,9.483-7.951,18.965-7.951,9.481,7.951,18.963,7.951S189.62,5.706,199.1,5.706s9.482,7.951,18.963,7.951,9.481-7.951,18.963-7.951,9.482,7.951,18.965,7.951,9.481-7.951,18.963-7.951,9.482,7.951,18.964,7.951,9.481-7.951,18.963-7.951,9.483,7.951,18.964,7.951,9.481-7.951,18.963-7.951,9.483,7.951,18.965,7.951,9.482-7.951,18.963-7.951,9.482,7.951,18.965,7.951,9.481-7.951,18.963-7.951,9.482,7.951,18.963,7.951,9.483-7.951,18.965-7.951,9.482,7.951,18.963,7.951,9.483-7.951,18.964-7.951,9.483,7.951,18.965,7.951,9.482-7.951,18.964-7.951,9.482,7.951,18.964,7.951,9.482-7.951,18.964-7.951,9.482,7.951,18.964,7.951,9.482-7.951,18.965-7.951,9.483,7.951,18.965,7.951,9.48-7.951,18.96-7.951,9.483,7.951,18.965,7.951,9.481-7.951,18.961-7.951,9.481,7.951,18.963,7.951,9.481-7.951,18.963-7.951,9.481,7.951,18.962,7.951,9.482-7.951,18.964-7.951,9.483,7.951,18.965,7.951,9.482-7.951,18.964-7.951,9.482,7.951,18.963,7.951,9.482-7.951,18.964-7.951,9.482,7.951,18.964,7.951,9.482-7.951,18.965-7.951,9.483,7.951,18.966,7.951,9.483-7.951,18.965-7.951,9.483,7.951,18.966,7.951,9.483-7.951,18.965-7.951,9.483,7.951,18.966,7.951,9.483-7.951,18.966-7.951,9.483,7.951,18.967,7.951,9.481-7.951,18.963-7.951,9.483,7.951,18.965,7.951,9.483-7.951,18.965-7.951,9.484,7.951,18.968,7.951,9.484-7.951,18.968-7.951,9.484,7.951,18.969,7.951,9.485-7.951,18.969-7.951,9.485,7.951,18.971,7.951,10.661-10.035,19.89-7.844c2.191.521-4.895,6.121-4.895,8.373s7.951,2.253,7.951,4.505-7.951,2.252-7.951,4.505,7.951,2.252,7.951,4.505-7.951,2.254-7.951,4.507,7.951,2.254,7.951,4.506-7.951,2.253-7.951,4.506,7.951,2.253,7.951,4.505-7.951,2.253-7.951,4.506,7.951,2.254,7.951,4.506-7.951,2.254-7.951,4.507,7.951,2.253,7.951,4.506-7.951,2.253-7.951,4.506,7.951,2.253,7.951,4.506-7.951,2.254-7.951,4.508,7.951,2.253,7.951,4.506-7.951,2.253-7.951,4.506,7.951,2.253,7.951,4.506-7.951,2.254-7.951,4.508,7.951,2.253,7.951,4.506-7.951,2.253-7.951,4.506,7.951,2.254,7.951,4.507-7.951,2.254-7.951,4.507,7.951,2.253,7.951,4.506-7.951,2.254-7.951,4.507,7.951,2.254,7.951,4.507-7.951,2.254-7.951,4.507,7.951,2.254,7.951,4.507-7.951,2.254-7.951,4.507,7.951,2.254,7.951,4.507-7.951,2.254-7.951,4.508,7.951,2.253,7.951,4.506-7.951,2.254-7.951,4.508,7.951,2.252,7.951,4.505-7.951,2.252-7.951,4.5,7.951,2.253,7.951,4.506-7.951,2.254-7.951,4.507,7.951,2.253,7.951,4.505-7.951,2.254-7.951,4.506,7.951,2.254,7.951,4.508-7.951,2.253-7.951,4.506,7.951,2.254,7.951,4.508-7.951,2.254-7.951,4.507,7.951,2.254,7.951,4.508-7.951,2.254-7.951,4.507,7.951,2.254,7.951,4.508-7.951,2.254-7.951,4.508,7.951,2.254,7.951,4.509-7.951,2.254-7.951,4.509,7.951,2.255,7.951,4.509-7.951,2.254-7.951,4.509,7.951,2.254,7.951,4.509-7.951,2.255-7.951,4.51,7.951,2.254,7.951,4.507-7.951,2.254-7.951,4.509,7.951,2.254,7.951,4.509-7.951,2.254-7.951,4.509,7.951,2.255,7.951,4.51-7.951,2.254-7.951,4.508,7.951,2.256,7.951,4.512-8.382,3.3-7.831,5.486C1182.5,289.935,1188.378,292.483,1186.182,293.005Z" transform="translate(-1.856 -1.856)" fill="none" stroke="#f84b4b" stroke-linejoin="round" stroke-width="11"/>
  </g>
</svg>
