<svg height="295.108" viewBox="0 0 1191.026 295.108" width="1191.026" xmlns="http://www.w3.org/2000/svg" xmlns:xlink="http://www.w3.org/1999/xlink"><clipPath id="a"><path d="m0 0h1191.026v295.108h-1191.026z"/></clipPath><g clip-path="url(#a)"><path d="m1186.182 293.005c-9.223 2.2-10.4-7.843-19.882-7.843s-9.481 7.951-18.963 7.951-9.481-7.951-18.963-7.951-9.481 7.951-18.962 7.951-9.481-7.951-18.963-7.951-9.481 7.951-18.963 7.951-9.481-7.951-18.962-7.951-9.482 7.951-18.964 7.951-9.481-7.951-18.963-7.951-9.481 7.951-18.963 7.951-9.482-7.951-18.964-7.951-9.481 7.951-18.962 7.951-9.483-7.951-18.965-7.951-9.481 7.951-18.963 7.951-9.482-7.951-18.965-7.951-9.481 7.951-18.963 7.951-9.482-7.951-18.964-7.951-9.482 7.951-18.963 7.951-9.482-7.951-18.964-7.951-9.481 7.951-18.963 7.951-9.483-7.951-18.964-7.951-9.482 7.951-18.963 7.951-9.482-7.951-18.964-7.951-9.482 7.951-18.964 7.951-9.481-7.951-18.963-7.951-9.482 7.951-18.964 7.951-9.483-7.951-18.965-7.951-9.482 7.951-18.964 7.951-9.481-7.951-18.963-7.951-9.482 7.951-18.964 7.951-9.483-7.951-18.965-7.951-9.483 7.951-18.964 7.951-9.483-7.951-18.965-7.951-9.48 7.951-18.961 7.951-9.482-7.951-18.965-7.951-9.481 7.951-18.961 7.951-9.481-7.951-18.963-7.951-9.482 7.951-18.963 7.951-9.481-7.951-18.962-7.951-9.482 7.951-18.964 7.951-9.483-7.951-18.966-7.951-9.481 7.951-18.963 7.951-9.482-7.951-18.964-7.951-9.481 7.951-18.963 7.951-9.482-7.951-18.964-7.951-9.483 7.951-18.965 7.951-9.483-7.951-18.967-7.951-9.483 7.951-18.965 7.951-9.483-7.951-18.966-7.951-9.483 7.951-18.966 7.951-9.483-7.951-18.965-7.951-9.483 7.951-18.966 7.951-9.484-7.951-18.967-7.951-9.481 7.951-18.963 7.951-9.483-7.951-18.965-7.951-9.483 7.951-18.966 7.951-9.484-7.951-18.968-7.951-9.484 7.951-18.968 7.951-9.485-7.951-18.969-7.951-9.484 7.951-18.968 7.951-9.486-7.951-18.971-7.951-10.656 10.038-19.885 7.844c-2.192-.521 4.894-6.121 4.894-8.373s-7.951-2.253-7.951-4.505 7.951-2.252 7.951-4.5-7.951-2.258-7.951-4.511 7.951-2.254 7.951-4.507-7.951-2.252-7.951-4.51 7.951-2.253 7.951-4.506-7.951-2.248-7.951-4.501 7.951-2.253 7.951-4.506-7.951-2.252-7.951-4.506 7.951-2.254 7.951-4.507-7.951-2.253-7.951-4.506 7.951-2.253 7.951-4.506-7.951-2.252-7.951-4.506 7.951-2.254 7.951-4.507-7.951-2.249-7.951-4.506 7.951-2.254 7.951-4.506-7.951-2.254-7.951-4.507 7.951-2.254 7.951-4.508-7.951-2.253-7.951-4.506 7.951-2.253 7.951-4.506-7.951-2.254-7.951-4.51 7.951-2.254 7.951-4.508-7.951-2.25-7.951-4.503 7.951-2.254 7.951-4.507-7.951-2.254-7.951-4.507 7.951-2.254 7.951-4.506-7.951-2.255-7.951-4.509 7.951-2.254 7.951-4.507-7.951-2.253-7.951-4.507 7.951-2.254 7.951-4.508-7.951-2.253-7.951-4.506 7.951-2.254 7.951-4.508-7.951-2.252-7.951-4.5 7.951-2.252 7.951-4.5-7.951-2.263-7.951-4.515 7.951-2.254 7.951-4.507-7.951-2.253-7.951-4.502 7.951-2.253 7.951-4.506-7.951-2.258-7.951-4.512 7.951-2.253 7.951-4.506-7.951-2.253-7.951-4.507 7.951-2.254 7.951-4.507-7.951-2.254-7.951-4.507 7.951-2.254 7.951-4.508-7.951-2.254-7.951-4.508 7.951-2.254 7.951-4.508-7.951-2.254-7.951-4.509 7.951-2.255 7.951-4.51-7.951-2.253-7.951-4.512 7.951-2.254 7.951-4.508-7.951-2.252-7.951-4.506 7.951-2.255 7.951-4.51-7.951-2.254-7.951-4.507 7.951-2.255 7.951-4.509-7.951-2.26-7.951-4.509 7.951-2.255 7.951-4.509-7.951-2.256-7.951-4.511 7.951-2.254 7.951-4.508-7.951-2.256-7.951-4.512 7.951-2.257 7.951-4.514-7.093-7.86-4.9-8.383c9.223-2.2 10.4 7.843 19.882 7.843s9.486-7.951 18.967-7.951 9.481 7.951 18.963 7.951 9.481-7.951 18.962-7.951 9.482 7.951 18.963 7.951 9.481-7.951 18.963-7.951 9.481 7.951 18.962 7.951 9.483-7.951 18.965-7.951 9.481 7.951 18.963 7.951 9.479-7.951 18.959-7.951 9.482 7.951 18.963 7.951 9.481-7.951 18.963-7.951 9.482 7.951 18.965 7.951 9.481-7.951 18.963-7.951 9.482 7.951 18.964 7.951 9.481-7.951 18.963-7.951 9.483 7.951 18.964 7.951 9.481-7.951 18.963-7.951 9.483 7.951 18.965 7.951 9.482-7.951 18.963-7.951 9.482 7.951 18.965 7.951 9.481-7.951 18.963-7.951 9.482 7.951 18.963 7.951 9.483-7.951 18.965-7.951 9.482 7.951 18.963 7.951 9.483-7.951 18.964-7.951 9.483 7.951 18.965 7.951 9.482-7.951 18.964-7.951 9.482 7.951 18.964 7.951 9.482-7.951 18.964-7.951 9.482 7.951 18.964 7.951 9.482-7.951 18.965-7.951 9.483 7.951 18.965 7.951 9.48-7.951 18.96-7.951 9.483 7.951 18.965 7.951 9.481-7.951 18.961-7.951 9.481 7.951 18.963 7.951 9.481-7.951 18.963-7.951 9.481 7.951 18.962 7.951 9.482-7.951 18.964-7.951 9.483 7.951 18.965 7.951 9.482-7.951 18.964-7.951 9.482 7.951 18.963 7.951 9.482-7.951 18.964-7.951 9.482 7.951 18.964 7.951 9.482-7.951 18.965-7.951 9.483 7.951 18.966 7.951 9.483-7.951 18.965-7.951 9.483 7.951 18.966 7.951 9.483-7.951 18.965-7.951 9.483 7.951 18.966 7.951 9.483-7.951 18.966-7.951 9.483 7.951 18.967 7.951 9.481-7.951 18.963-7.951 9.483 7.951 18.965 7.951 9.483-7.951 18.965-7.951 9.484 7.951 18.968 7.951 9.484-7.951 18.968-7.951 9.484 7.951 18.969 7.951 9.485-7.951 18.969-7.951 9.485 7.951 18.971 7.951 10.661-10.035 19.89-7.844c2.191.521-4.895 6.121-4.895 8.373s7.951 2.253 7.951 4.505-7.951 2.252-7.951 4.505 7.951 2.252 7.951 4.505-7.951 2.254-7.951 4.507 7.951 2.254 7.951 4.506-7.951 2.253-7.951 4.506 7.951 2.253 7.951 4.505-7.951 2.253-7.951 4.506 7.951 2.254 7.951 4.506-7.951 2.254-7.951 4.507 7.951 2.253 7.951 4.506-7.951 2.253-7.951 4.506 7.951 2.253 7.951 4.506-7.951 2.254-7.951 4.508 7.951 2.253 7.951 4.506-7.951 2.253-7.951 4.506 7.951 2.253 7.951 4.506-7.951 2.254-7.951 4.508 7.951 2.253 7.951 4.506-7.951 2.253-7.951 4.506 7.951 2.254 7.951 4.507-7.951 2.254-7.951 4.507 7.951 2.253 7.951 4.506-7.951 2.254-7.951 4.507 7.951 2.254 7.951 4.507-7.951 2.254-7.951 4.507 7.951 2.254 7.951 4.507-7.951 2.254-7.951 4.507 7.951 2.254 7.951 4.507-7.951 2.254-7.951 4.508 7.951 2.253 7.951 4.506-7.951 2.254-7.951 4.508 7.951 2.252 7.951 4.505-7.951 2.252-7.951 4.5 7.951 2.253 7.951 4.506-7.951 2.254-7.951 4.507 7.951 2.253 7.951 4.505-7.951 2.254-7.951 4.506 7.951 2.254 7.951 4.508-7.951 2.253-7.951 4.506 7.951 2.254 7.951 4.508-7.951 2.254-7.951 4.507 7.951 2.254 7.951 4.508-7.951 2.254-7.951 4.507 7.951 2.254 7.951 4.508-7.951 2.254-7.951 4.508 7.951 2.254 7.951 4.509-7.951 2.254-7.951 4.509 7.951 2.255 7.951 4.509-7.951 2.254-7.951 4.509 7.951 2.254 7.951 4.509-7.951 2.255-7.951 4.51 7.951 2.254 7.951 4.507-7.951 2.254-7.951 4.509 7.951 2.254 7.951 4.509-7.951 2.254-7.951 4.509 7.951 2.255 7.951 4.51-7.951 2.254-7.951 4.508 7.951 2.256 7.951 4.512-8.382 3.3-7.831 5.486c1.093 4.341 6.972 6.888 4.776 7.411" fill="#f84b4b" transform="translate(-1.856 -1.856)"/><path d="m1186.182 293.005c-9.223 2.2-10.4-7.843-19.882-7.843s-9.481 7.951-18.963 7.951-9.481-7.951-18.963-7.951-9.481 7.951-18.962 7.951-9.481-7.951-18.963-7.951-9.481 7.951-18.963 7.951-9.481-7.951-18.962-7.951-9.482 7.951-18.964 7.951-9.481-7.951-18.963-7.951-9.481 7.951-18.963 7.951-9.482-7.951-18.964-7.951-9.481 7.951-18.962 7.951-9.483-7.951-18.965-7.951-9.481 7.951-18.963 7.951-9.482-7.951-18.965-7.951-9.481 7.951-18.963 7.951-9.482-7.951-18.964-7.951-9.482 7.951-18.963 7.951-9.482-7.951-18.964-7.951-9.481 7.951-18.963 7.951-9.483-7.951-18.964-7.951-9.482 7.951-18.963 7.951-9.482-7.951-18.964-7.951-9.482 7.951-18.964 7.951-9.481-7.951-18.963-7.951-9.482 7.951-18.964 7.951-9.483-7.951-18.965-7.951-9.482 7.951-18.964 7.951-9.481-7.951-18.963-7.951-9.482 7.951-18.964 7.951-9.483-7.951-18.965-7.951-9.483 7.951-18.964 7.951-9.483-7.951-18.965-7.951-9.48 7.951-18.961 7.951-9.482-7.951-18.965-7.951-9.481 7.951-18.961 7.951-9.481-7.951-18.963-7.951-9.482 7.951-18.963 7.951-9.481-7.951-18.962-7.951-9.482 7.951-18.964 7.951-9.483-7.951-18.966-7.951-9.481 7.951-18.963 7.951-9.482-7.951-18.964-7.951-9.481 7.951-18.963 7.951-9.482-7.951-18.964-7.951-9.483 7.951-18.965 7.951-9.483-7.951-18.967-7.951-9.483 7.951-18.965 7.951-9.483-7.951-18.966-7.951-9.483 7.951-18.966 7.951-9.483-7.951-18.965-7.951-9.483 7.951-18.966 7.951-9.484-7.951-18.967-7.951-9.481 7.951-18.963 7.951-9.483-7.951-18.965-7.951-9.483 7.951-18.966 7.951-9.484-7.951-18.968-7.951-9.484 7.951-18.968 7.951-9.485-7.951-18.969-7.951-9.484 7.951-18.968 7.951-9.486-7.951-18.971-7.951-10.656 10.038-19.885 7.844c-2.192-.521 4.894-6.121 4.894-8.373s-7.951-2.253-7.951-4.505 7.951-2.252 7.951-4.5-7.951-2.258-7.951-4.511 7.951-2.254 7.951-4.507-7.951-2.252-7.951-4.51 7.951-2.253 7.951-4.506-7.951-2.248-7.951-4.501 7.951-2.253 7.951-4.506-7.951-2.252-7.951-4.506 7.951-2.254 7.951-4.507-7.951-2.253-7.951-4.506 7.951-2.253 7.951-4.506-7.951-2.252-7.951-4.506 7.951-2.254 7.951-4.507-7.951-2.249-7.951-4.506 7.951-2.254 7.951-4.506-7.951-2.254-7.951-4.507 7.951-2.254 7.951-4.508-7.951-2.253-7.951-4.506 7.951-2.253 7.951-4.506-7.951-2.254-7.951-4.51 7.951-2.254 7.951-4.508-7.951-2.25-7.951-4.503 7.951-2.254 7.951-4.507-7.951-2.254-7.951-4.507 7.951-2.254 7.951-4.506-7.951-2.255-7.951-4.509 7.951-2.254 7.951-4.507-7.951-2.253-7.951-4.507 7.951-2.254 7.951-4.508-7.951-2.253-7.951-4.506 7.951-2.254 7.951-4.508-7.951-2.252-7.951-4.5 7.951-2.252 7.951-4.5-7.951-2.263-7.951-4.515 7.951-2.254 7.951-4.507-7.951-2.253-7.951-4.502 7.951-2.253 7.951-4.506-7.951-2.258-7.951-4.512 7.951-2.253 7.951-4.506-7.951-2.253-7.951-4.507 7.951-2.254 7.951-4.507-7.951-2.254-7.951-4.507 7.951-2.254 7.951-4.508-7.951-2.254-7.951-4.508 7.951-2.254 7.951-4.508-7.951-2.254-7.951-4.509 7.951-2.255 7.951-4.51-7.951-2.253-7.951-4.512 7.951-2.254 7.951-4.508-7.951-2.252-7.951-4.506 7.951-2.255 7.951-4.51-7.951-2.254-7.951-4.507 7.951-2.255 7.951-4.509-7.951-2.26-7.951-4.509 7.951-2.255 7.951-4.509-7.951-2.256-7.951-4.511 7.951-2.254 7.951-4.508-7.951-2.256-7.951-4.512 7.951-2.257 7.951-4.514-7.093-7.86-4.9-8.383c9.223-2.2 10.4 7.843 19.882 7.843s9.486-7.951 18.967-7.951 9.481 7.951 18.963 7.951 9.481-7.951 18.962-7.951 9.482 7.951 18.963 7.951 9.481-7.951 18.963-7.951 9.481 7.951 18.962 7.951 9.483-7.951 18.965-7.951 9.481 7.951 18.963 7.951 9.479-7.951 18.959-7.951 9.482 7.951 18.963 7.951 9.481-7.951 18.963-7.951 9.482 7.951 18.965 7.951 9.481-7.951 18.963-7.951 9.482 7.951 18.964 7.951 9.481-7.951 18.963-7.951 9.483 7.951 18.964 7.951 9.481-7.951 18.963-7.951 9.483 7.951 18.965 7.951 9.482-7.951 18.963-7.951 9.482 7.951 18.965 7.951 9.481-7.951 18.963-7.951 9.482 7.951 18.963 7.951 9.483-7.951 18.965-7.951 9.482 7.951 18.963 7.951 9.483-7.951 18.964-7.951 9.483 7.951 18.965 7.951 9.482-7.951 18.964-7.951 9.482 7.951 18.964 7.951 9.482-7.951 18.964-7.951 9.482 7.951 18.964 7.951 9.482-7.951 18.965-7.951 9.483 7.951 18.965 7.951 9.48-7.951 18.96-7.951 9.483 7.951 18.965 7.951 9.481-7.951 18.961-7.951 9.481 7.951 18.963 7.951 9.481-7.951 18.963-7.951 9.481 7.951 18.962 7.951 9.482-7.951 18.964-7.951 9.483 7.951 18.965 7.951 9.482-7.951 18.964-7.951 9.482 7.951 18.963 7.951 9.482-7.951 18.964-7.951 9.482 7.951 18.964 7.951 9.482-7.951 18.965-7.951 9.483 7.951 18.966 7.951 9.483-7.951 18.965-7.951 9.483 7.951 18.966 7.951 9.483-7.951 18.965-7.951 9.483 7.951 18.966 7.951 9.483-7.951 18.966-7.951 9.483 7.951 18.967 7.951 9.481-7.951 18.963-7.951 9.483 7.951 18.965 7.951 9.483-7.951 18.965-7.951 9.484 7.951 18.968 7.951 9.484-7.951 18.968-7.951 9.484 7.951 18.969 7.951 9.485-7.951 18.969-7.951 9.485 7.951 18.971 7.951 10.661-10.035 19.89-7.844c2.191.521-4.895 6.121-4.895 8.373s7.951 2.253 7.951 4.505-7.951 2.252-7.951 4.505 7.951 2.252 7.951 4.505-7.951 2.254-7.951 4.507 7.951 2.254 7.951 4.506-7.951 2.253-7.951 4.506 7.951 2.253 7.951 4.505-7.951 2.253-7.951 4.506 7.951 2.254 7.951 4.506-7.951 2.254-7.951 4.507 7.951 2.253 7.951 4.506-7.951 2.253-7.951 4.506 7.951 2.253 7.951 4.506-7.951 2.254-7.951 4.508 7.951 2.253 7.951 4.506-7.951 2.253-7.951 4.506 7.951 2.253 7.951 4.506-7.951 2.254-7.951 4.508 7.951 2.253 7.951 4.506-7.951 2.253-7.951 4.506 7.951 2.254 7.951 4.507-7.951 2.254-7.951 4.507 7.951 2.253 7.951 4.506-7.951 2.254-7.951 4.507 7.951 2.254 7.951 4.507-7.951 2.254-7.951 4.507 7.951 2.254 7.951 4.507-7.951 2.254-7.951 4.507 7.951 2.254 7.951 4.507-7.951 2.254-7.951 4.508 7.951 2.253 7.951 4.506-7.951 2.254-7.951 4.508 7.951 2.252 7.951 4.505-7.951 2.252-7.951 4.5 7.951 2.253 7.951 4.506-7.951 2.254-7.951 4.507 7.951 2.253 7.951 4.505-7.951 2.254-7.951 4.506 7.951 2.254 7.951 4.508-7.951 2.253-7.951 4.506 7.951 2.254 7.951 4.508-7.951 2.254-7.951 4.507 7.951 2.254 7.951 4.508-7.951 2.254-7.951 4.507 7.951 2.254 7.951 4.508-7.951 2.254-7.951 4.508 7.951 2.254 7.951 4.509-7.951 2.254-7.951 4.509 7.951 2.255 7.951 4.509-7.951 2.254-7.951 4.509 7.951 2.254 7.951 4.509-7.951 2.255-7.951 4.51 7.951 2.254 7.951 4.507-7.951 2.254-7.951 4.509 7.951 2.254 7.951 4.509-7.951 2.254-7.951 4.509 7.951 2.255 7.951 4.51-7.951 2.254-7.951 4.508 7.951 2.256 7.951 4.512-8.382 3.3-7.831 5.486c1.093 4.349 6.971 6.897 4.775 7.419z" fill="none" stroke="#f84b4b" stroke-linejoin="round" stroke-width="11" transform="translate(-1.856 -1.856)"/></g></svg>